<svg width="17" height="17" viewBox="0 0 17 17" fill="none" xmlns="http://www.w3.org/2000/svg">
<path fill-rule="evenodd" clip-rule="evenodd" d="M14.797 7.05817C15.668 5.47913 16 4.20617 16 3.34637C16 2.48657 15.7887 2.23997 15.5744 2.04074C15.36 1.84153 14.3934 1.24558 14.2288 1.13444C14.0641 1.0233 13.4355 0.807312 13.0412 1.37436C12.6471 1.94141 11.9047 3.07993 11.393 3.83626C10.5899 4.90755 11.2297 5.37783 11.4364 5.6597C11.8167 6.17838 12.0356 6.30631 12.0356 6.9432C12.0356 7.58008 10.2557 9.3895 9.83008 9.83533C9.40775 10.2778 7.63417 11.8325 7.08461 11.9157C6.53118 11.9994 5.79029 11.4135 5.63278 11.2649C4.83144 10.6497 4.37911 11.1161 4.01 11.3188C3.64089 11.5216 1.97318 12.5608 1.45638 12.9111C0.969977 13.2613 1.00038 13.8028 1.00038 13.8028C1.00038 13.8028 2.00358 15.3949 2.12518 15.586C2.27718 15.8089 2.64198 16 3.46279 16C4.2836 16 5.16059 15.8501 7.24481 14.7038C8.95017 13.7659 10.5759 12.2972 11.4271 11.4375C12.3088 10.5777 13.8022 8.86183 14.797 7.05817Z" fill="white" stroke="#002034"/>
</svg>
