<svg width="21" height="23" viewBox="0 0 21 23" fill="none" xmlns="http://www.w3.org/2000/svg">
<path d="M1 8C1 7.44772 1.44772 7 2 7H18C18.5523 7 19 7.44772 19 8V22C19 22.5523 18.5523 23 18 23H2C1.44772 23 1 22.5523 1 22V8Z" fill="#002034"/>
<ellipse cx="10" cy="8" rx="9" ry="4" fill="#FDF2DC"/>
<ellipse cx="10" cy="6" rx="7" ry="2" fill="#FFE9BD"/>
<ellipse cx="10" cy="4.5" rx="5" ry="1.5" fill="#FBDFA7"/>
<path d="M9.20759 1.02937C9.6079 0.509357 10.3921 0.509358 10.7924 1.02937L12.2247 2.89001C12.7309 3.54757 12.2622 4.5 11.4323 4.5H8.56768C7.73784 4.5 7.26908 3.54757 7.77527 2.89001L9.20759 1.02937Z" fill="#FACF7A"/>
</svg>
