<svg width="50" height="27" viewBox="0 0 50 27" fill="none" xmlns="http://www.w3.org/2000/svg">
<path d="M35 11.0711C35 13.7232 33.8411 16.2668 31.7782 18.1421C29.7153 20.0175 26.9174 21.0711 24 21.0711C21.0826 21.0711 18.2847 20.0175 16.2218 18.1421C14.1589 16.2668 13 13.7232 13 11.0711L24 11.0711H35Z" fill="#D9D9D9"/>
<path d="M35 11.0711C35 13.7232 33.8411 16.2668 31.7782 18.1421C29.7153 20.0175 26.9174 21.0711 24 21.0711C21.0826 21.0711 18.2847 20.0175 16.2218 18.1421C14.1589 16.2668 13 13.7232 13 11.0711L24 11.0711H35Z" fill="#002034"/>
<path d="M35 11C35 10.0071 33.2328 8.87148 32.6666 7.95417C32.1004 7.03686 30.2243 5.5013 30.2243 5.5013C29.1781 4.79922 28.5185 4.39017 27.1516 4.01021C25.7847 3.63024 24.9153 5.65381 23.7333 3.43933C23.409 3.18823 22.5425 -0.00176525 19.0975 4.01021C17.7305 4.39017 18.4675 5.48195 17.4213 6.18403C16.3751 6.88611 14.4238 7.18473 13.8576 8.10203C13.2914 9.01934 13 10.0025 13 10.9954H23.409L35 11Z" fill="#F2C7AE"/>
</svg>
