<svg width="37" height="27" viewBox="0 0 37 27" fill="none" xmlns="http://www.w3.org/2000/svg">
<line x1="25.7" y1="5.4" x2="21.7" y2="2.4" stroke="#685F5F"/>
<line x1="21.4981" y1="2.04331" x2="19.4981" y2="25.0433" stroke="#685F5F"/>
<path d="M14 8H24V27H14V8Z" fill="#85D1D6" fill-opacity="0.63"/>
<path d="M15.2735 6.23607C15.5021 5.53225 16.4979 5.53225 16.7265 6.23607C16.8288 6.55083 17.1221 6.76393 17.4531 6.76393C18.1931 6.76393 18.5008 7.71091 17.9021 8.1459C17.6344 8.34043 17.5223 8.68524 17.6246 9C17.8533 9.70382 17.0477 10.2891 16.449 9.8541C16.1813 9.65957 15.8187 9.65957 15.551 9.8541C14.9523 10.2891 14.1467 9.70382 14.3754 9C14.4777 8.68524 14.3656 8.34043 14.0979 8.1459C13.4992 7.71091 13.8069 6.76393 14.5469 6.76393C14.8779 6.76393 15.1712 6.55083 15.2735 6.23607Z" fill="#FF8A00"/>
<path d="M15.2735 6.23607C15.5021 5.53225 16.4979 5.53225 16.7265 6.23607C16.8288 6.55083 17.1221 6.76393 17.4531 6.76393C18.1931 6.76393 18.5008 7.71091 17.9021 8.1459C17.6344 8.34043 17.5223 8.68524 17.6246 9C17.8533 9.70382 17.0477 10.2891 16.449 9.8541C16.1813 9.65957 15.8187 9.65957 15.551 9.8541C14.9523 10.2891 14.1467 9.70382 14.3754 9C14.4777 8.68524 14.3656 8.34043 14.0979 8.1459C13.4992 7.71091 13.8069 6.76393 14.5469 6.76393C14.8779 6.76393 15.1712 6.55083 15.2735 6.23607Z" fill="#FF8A00"/>
<path d="M15.2735 6.23607C15.5021 5.53225 16.4979 5.53225 16.7265 6.23607C16.8288 6.55083 17.1221 6.76393 17.4531 6.76393C18.1931 6.76393 18.5008 7.71091 17.9021 8.1459C17.6344 8.34043 17.5223 8.68524 17.6246 9C17.8533 9.70382 17.0477 10.2891 16.449 9.8541C16.1813 9.65957 15.8187 9.65957 15.551 9.8541C14.9523 10.2891 14.1467 9.70382 14.3754 9C14.4777 8.68524 14.3656 8.34043 14.0979 8.1459C13.4992 7.71091 13.8069 6.76393 14.5469 6.76393C14.8779 6.76393 15.1712 6.55083 15.2735 6.23607Z" fill="#FF8A00"/>
</svg>
