<svg width="46" height="49" viewBox="0 0 46 49" fill="none" xmlns="http://www.w3.org/2000/svg">
<path d="M32 13C32 15.6522 30.8411 18.1957 28.7782 20.0711C26.7153 21.9464 23.9174 23 21 23C18.0826 23 15.2847 21.9464 13.2218 20.0711C11.1589 18.1957 10 15.6522 10 13L21 13H32Z" fill="#D9D9D9"/>
<path d="M32 13C32 15.6522 30.8411 18.1957 28.7782 20.0711C26.7153 21.9464 23.9174 23 21 23C18.0826 23 15.2847 21.9464 13.2218 20.0711C11.1589 18.1957 10 15.6522 10 13L21 13H32Z" fill="#002034"/>
<path d="M32 13C32 12.1174 30.2328 11.108 29.6666 10.2926C29.1004 9.47721 27.2243 8.11227 27.2243 8.11227C26.1781 7.4882 25.5185 7.12459 24.1516 6.78685C22.7847 6.44911 21.9153 8.24783 20.7333 6.2794C20.409 6.05621 19.5425 3.22065 16.0975 6.78685C14.7305 7.12459 15.4675 8.09507 14.4213 8.71914C13.3751 9.34321 11.4238 9.60864 10.8576 10.424C10.2914 11.2394 10 12.1133 10 12.9959L20.409 12.9959L32 13Z" fill="#AAB569"/>
</svg>
